<?xml version="1.0" encoding="utf-8"?>
<!-- Generator: Adobe Illustrator 16.0.3, SVG Export Plug-In . SVG Version: 6.00 Build 0)  -->
<!DOCTYPE svg PUBLIC "-//W3C//DTD SVG 1.1//EN" "http://www.w3.org/Graphics/SVG/1.1/DTD/svg11.dtd">
<svg version="1.1" id="Capa_1" xmlns="http://www.w3.org/2000/svg" xmlns:xlink="http://www.w3.org/1999/xlink" x="0px" y="0px"
	 width="480px" height="480px" viewBox="0 0 480 480" enable-background="new 0 0 480 480" xml:space="preserve">
<g>
	<g>
		<path fill="#FFFFFF" d="M233.157,10.219C149.99,10.219,82.57,80.511,82.57,167.22c0,138.778,150.587,273.355,150.587,273.355
			S383.743,305.998,383.743,167.22C383.743,80.511,316.323,10.219,233.157,10.219z M233.157,253.428
			c-48.773,0-88.314-39.542-88.314-88.311c0-48.777,39.542-88.311,88.314-88.311c48.774,0,88.314,39.533,88.314,88.311
			C321.471,213.886,281.931,253.428,233.157,253.428z"/>
		<path fill="#FFFFFF" d="M230.256,125.511c0,20.273-16.432,36.705-36.701,36.705c-20.269,0-36.7-16.432-36.7-36.705
			c0-20.264,16.432-36.696,36.7-36.696C213.825,88.815,230.256,105.247,230.256,125.511z"/>
	</g>
</g>
</svg>
