<?xml version="1.0" encoding="utf-8"?>
<!-- Generator: Adobe Illustrator 16.0.3, SVG Export Plug-In . SVG Version: 6.00 Build 0)  -->
<!DOCTYPE svg PUBLIC "-//W3C//DTD SVG 1.1//EN" "http://www.w3.org/Graphics/SVG/1.1/DTD/svg11.dtd">
<svg version="1.1" id="Capa_1" xmlns="http://www.w3.org/2000/svg" xmlns:xlink="http://www.w3.org/1999/xlink" x="0px" y="0px"
	 width="480px" height="480px" viewBox="0 0 480 480" enable-background="new 0 0 480 480" xml:space="preserve">
<g>
	<path fill="#FFFFFF" d="M401.7,62.815H65.359c-28.319,0-51.353,23.03-51.353,51.345v251.67c0,28.316,23.033,51.354,51.353,51.354
		H401.7c28.317,0,51.349-23.038,51.349-51.354V114.16C453.049,85.845,430.018,62.815,401.7,62.815z M367.554,112.988L233.75,208.963
		l-129.814-95.976H367.554z M401.7,367.011H65.359c-0.649,0-1.175-0.525-1.175-1.181V146l169.122,125.036l169.566-121.629V365.83
		C402.872,366.485,402.347,367.011,401.7,367.011z"/>
</g>
</svg>
