<?xml version="1.0" encoding="utf-8"?>
<!-- Generator: Adobe Illustrator 16.0.3, SVG Export Plug-In . SVG Version: 6.00 Build 0)  -->
<!DOCTYPE svg PUBLIC "-//W3C//DTD SVG 1.1//EN" "http://www.w3.org/Graphics/SVG/1.1/DTD/svg11.dtd">
<svg version="1.1" id="Capa_1" xmlns="http://www.w3.org/2000/svg" xmlns:xlink="http://www.w3.org/1999/xlink" x="0px" y="0px"
	 width="300px" height="300px" viewBox="0 0 300 300" enable-background="new 0 0 300 300" xml:space="preserve">
<g>
	<path fill="#FFFFFF" d="M151.277,5.118c-80.722,0-146.16,65.437-146.16,146.16c0,80.722,65.438,146.162,146.16,146.162
		c80.72,0,146.16-65.44,146.16-146.162C297.438,70.555,231.997,5.118,151.277,5.118z M212.612,216.982
		c-2.09,3.397-5.719,5.267-9.433,5.267c-1.975,0-3.975-0.529-5.781-1.639c-0.186-0.11-21.117-12.654-46.13-12.654
		c-25.008,0-45.942,12.544-46.152,12.67c-5.205,3.164-12.009,1.529-15.19-3.675c-3.179-5.201-1.563-11.986,3.633-15.182
		c1.056-0.648,26.271-15.928,57.71-15.928s56.652,15.279,57.714,15.928C214.184,204.97,215.813,211.78,212.612,216.982z
		 M238.654,179.417c-2.787,4.524-7.624,7.018-12.574,7.024c-2.633,0-5.302-0.708-7.71-2.19c-0.274-0.165-30.701-18.42-67.102-18.42
		c-36.726,0-66.8,18.236-67.1,18.42c-6.936,4.261-16.017,2.099-20.282-4.834c-4.267-6.936-2.103-16.019,4.835-20.28
		c1.516-0.933,37.573-22.791,82.547-22.791c44.978,0,81.034,21.858,82.55,22.791C240.756,163.398,242.917,172.481,238.654,179.417z
		 M249.853,144.321c-3.296,0-6.627-0.88-9.638-2.733c-0.365-0.225-40.68-24.422-88.946-24.422c-48.262,0-88.578,24.197-88.98,24.44
		c-8.678,5.29-20.018,2.553-25.319-6.11c-5.305-8.667-2.609-19.981,6.045-25.306C45,108.969,92.28,80.308,151.269,80.308
		c58.99,0,106.272,28.661,108.255,29.882c8.673,5.332,11.379,16.683,6.044,25.352C262.088,141.201,256.043,144.321,249.853,144.321z
		"/>
</g>
</svg>
