<?xml version="1.0" encoding="utf-8"?>
<!-- Generator: Adobe Illustrator 16.0.3, SVG Export Plug-In . SVG Version: 6.00 Build 0)  -->
<!DOCTYPE svg PUBLIC "-//W3C//DTD SVG 1.1//EN" "http://www.w3.org/Graphics/SVG/1.1/DTD/svg11.dtd">
<svg version="1.1" id="Capa_1" xmlns="http://www.w3.org/2000/svg" xmlns:xlink="http://www.w3.org/1999/xlink" x="0px" y="0px"
	 width="200px" height="200px" viewBox="0 0 200 200" enable-background="new 0 0 200 200" xml:space="preserve">
<g>
	<path fill="#FFFFFF" d="M99.787,8.685c-51.288,0-92.865,41.578-92.865,92.864c0,51.291,41.578,92.867,92.865,92.867
		c51.29,0,92.866-41.576,92.866-92.867C192.652,50.263,151.076,8.685,99.787,8.685z M138.761,143.298
		c-1.329,2.158-3.636,3.345-5.996,3.345c-1.255,0-2.523-0.333-3.671-1.041c-0.116-0.067-13.422-8.04-29.313-8.04
		c-15.889,0-29.191,7.973-29.324,8.05c-3.308,2.011-7.631,0.973-9.651-2.333c-2.021-3.308-0.994-7.615,2.307-9.645
		c0.671-0.413,16.692-10.124,36.668-10.124c19.977,0,36,9.711,36.67,10.124C139.757,135.666,140.793,139.992,138.761,143.298z
		 M155.306,119.429c-1.771,2.875-4.844,4.461-7.991,4.463c-1.673,0-3.367-0.447-4.898-1.391
		c-0.172-0.107-19.506-11.703-42.635-11.703c-23.334,0-42.442,11.586-42.633,11.703c-4.407,2.706-10.177,1.332-12.886-3.072
		c-2.711-4.407-1.336-10.174,3.071-12.887c0.964-0.591,23.873-14.479,52.449-14.479c28.579,0,51.487,13.888,52.452,14.479
		C156.641,109.255,158.016,115.021,155.306,119.429z M162.42,97.13c-2.093,0-4.212-0.56-6.122-1.737
		c-0.233-0.143-25.848-15.516-56.517-15.516c-30.666,0-56.28,15.374-56.536,15.529c-5.514,3.36-12.717,1.621-16.086-3.883
		C23.788,86.016,25.501,78.828,31,75.445c1.262-0.775,31.301-18.987,68.781-18.987c37.482,0,67.524,18.212,68.783,18.987
		c5.511,3.388,7.231,10.6,3.841,16.107C170.193,95.148,166.353,97.13,162.42,97.13z"/>
</g>
</svg>
